<svg width="91" height="101" viewBox="0 0 91 101" fill="none" xmlns="http://www.w3.org/2000/svg">
<mask id="mask0_103_13" style="mask-type:alpha" maskUnits="userSpaceOnUse" x="4" y="0" width="83" height="93">
<path d="M85.875 25.7766L47.3585 0.412073C46.5326 -0.13186 45.4636 -0.137748 44.6317 0.397054L5.14811 25.7794C4.43255 26.2394 4 27.0316 4 27.8823V89.5174C4 90.8981 5.11929 92.0174 6.5 92.0174H34.5C35.8807 92.0174 37 90.8981 37 89.5174V70.5174C37 69.1367 38.1193 68.0174 39.5 68.0174H52C53.3807 68.0174 54.5 69.1367 54.5 70.5174V89.5174C54.5 90.8981 55.6193 92.0174 57 92.0174H84.5C85.8807 92.0174 87 90.8981 87 89.5174V27.8645C87 27.0236 86.5773 26.239 85.875 25.7766Z" fill="white"/>
</mask>
<g mask="url(#mask0_103_13)">
<rect x="-29" y="-7" width="149" height="113" fill="white"/>
</g>
</svg>
