<svg width="108" height="118" viewBox="0 0 108 118" fill="none" xmlns="http://www.w3.org/2000/svg">
<path d="M108 112V36.3125C108 34.2508 106.942 32.3335 105.197 31.2351L57.1969 1.01285C55.2431 -0.217287 52.7569 -0.217287 50.8031 1.01285L2.80312 31.2351C1.05848 32.3335 0 34.2508 0 36.3125V112C0 115.314 2.68629 118 6 118H42C42.8284 118 43.5 117.328 43.5 116.5V91C43.5 90.1716 44.1716 89.5 45 89.5H62.5C63.3284 89.5 64 90.1716 64 91V116.5C64 117.328 64.6716 118 65.5 118H102C105.314 118 108 115.314 108 112Z" fill="white"/>
</svg>
