<svg width="118" height="128" viewBox="0 0 118 128" fill="none" xmlns="http://www.w3.org/2000/svg">
<path d="M113 117V41.3125C113 39.2508 111.942 37.3335 110.197 36.2351L62.1969 6.01285C60.2431 4.78271 57.7569 4.78271 55.8031 6.01285L7.80312 36.2351C6.05848 37.3335 5 39.2508 5 41.3125V117C5 120.314 7.68629 123 11 123H47C47.8284 123 48.5 122.328 48.5 121.5V96C48.5 95.1716 49.1716 94.5 50 94.5H67.5C68.3284 94.5 69 95.1716 69 96V121.5C69 122.328 69.6716 123 70.5 123H107C110.314 123 113 120.314 113 117Z" stroke="#C7C7C7" stroke-width="9"/>
</svg>
