<svg width="83" height="93" viewBox="0 0 83 93" fill="none" xmlns="http://www.w3.org/2000/svg">
<path d="M81.875 25.7766L43.3585 0.412073C42.5326 -0.13186 41.4636 -0.137748 40.6317 0.397054L1.14811 25.7794C0.432549 26.2394 0 27.0316 0 27.8823V89.5174C0 90.8981 1.11929 92.0174 2.5 92.0174H30.5C31.8807 92.0174 33 90.8981 33 89.5174V70.5174C33 69.1367 34.1193 68.0174 35.5 68.0174H48C49.3807 68.0174 50.5 69.1367 50.5 70.5174V89.5174C50.5 90.8981 51.6193 92.0174 53 92.0174H80.5C81.8807 92.0174 83 90.8981 83 89.5174V27.8645C83 27.0236 82.5773 26.239 81.875 25.7766Z" fill="white"/>
</svg>
