<svg width="87" height="96" viewBox="0 0 87 96" fill="none" xmlns="http://www.w3.org/2000/svg">
<path d="M83.875 27.7766L45.3585 2.41207C44.5326 1.86814 43.4636 1.86225 42.6317 2.39705L3.14811 27.7794C2.43255 28.2394 2 29.0316 2 29.8823V91.5174C2 92.8981 3.11929 94.0174 4.5 94.0174H32.5C33.8807 94.0174 35 92.8981 35 91.5174V72.5174C35 71.1367 36.1193 70.0174 37.5 70.0174H50C51.3807 70.0174 52.5 71.1367 52.5 72.5174V91.5174C52.5 92.8981 53.6193 94.0174 55 94.0174H82.5C83.8807 94.0174 85 92.8981 85 91.5174V29.8645C85 29.0236 84.5773 28.239 83.875 27.7766Z" stroke="#CACACA" stroke-width="3"/>
</svg>
